# xmcd
#
# Track frame offsets:
#   150
#   11706
#   20550
#   29069
#   39888
#   51174
#   62440
#   72295
#   85148
#   99080
#   111835
#   122033
#   135873
#   149929
#   163409
#   179065
#
# Disc length: 2533 seconds
#
# Revision: 0
# Processed by: cddbd v1.4PL0 Copyright (c) Steve Scherf et al.
# Submitted via: uFREEDB 1.6.0
#
DISCID=e209e310
DTITLE=Robbins, Marty - Singles 1956 (And More)
DYEAR=1900
DGENRE=Country
TTITLE0=Long Gone Lonesome Blues
TTITLE1=Lorelei
TTITLE2=I'll Know You're Gone (with Lee Emerson)
TTITLE3=How Long Will It Be (with Lee Emerson)
TTITLE4=Singing The Blues
TTITLE5=I Can't Quit
TTITLE6=Long Tall Sally
TTITLE7=Mr. Teardrop
TTITLE8=Respectfully Miss Brooks
TTITLE9=You Don't Owe Me A Thing
TTITLE10=Knee Deep In The Blues
TTITLE11=The Same Two Lips
TTITLE12=The Little Rosewood Casket
TTITLE13=The Letter Edged In Black
TTITLE14=The Dream Of The Miner's Child
TTITLE15=When It's Lamplightning Time In The Valley
EXTD=
EXTT0=
EXTT1=
EXTT2=
EXTT3=
EXTT4=
EXTT5=
EXTT6=
EXTT7=
EXTT8=
EXTT9=
EXTT10=
EXTT11=
EXTT12=
EXTT13=
EXTT14=
EXTT15=
PLAYORDER=
